<svg xmlns="http://www.w3.org/2000/svg" xmlns:xlink="http://www.w3.org/1999/xlink" width="100" zoomAndPan="magnify" viewBox="0 0 75 74.999997" height="100" preserveAspectRatio="xMidYMid meet" version="1.0"><path fill="#000000" d="M 41.09375 37.597656 L 73.964844 4.726562 C 74.964844 3.722656 74.964844 2.101562 73.964844 1.101562 C 72.964844 0.101562 71.339844 0.101562 70.34375 1.101562 L 37.472656 33.972656 L 4.601562 1.101562 C 3.597656 0.101562 1.976562 0.101562 0.976562 1.101562 C -0.0234375 2.101562 -0.0234375 3.726562 0.976562 4.726562 L 33.847656 37.597656 L 0.976562 70.464844 C -0.0234375 71.46875 -0.0234375 73.089844 0.976562 74.089844 C 1.476562 74.589844 2.132812 74.839844 2.789062 74.839844 C 3.441406 74.839844 4.101562 74.589844 4.597656 74.089844 L 37.46875 41.21875 L 70.34375 74.089844 C 70.84375 74.589844 71.496094 74.839844 72.152344 74.839844 C 72.808594 74.839844 73.464844 74.589844 73.964844 74.089844 C 74.964844 73.089844 74.964844 71.464844 73.964844 70.464844 Z M 41.09375 37.597656 " fill-opacity="1" fill-rule="nonzero"/></svg>