<svg xmlns="http://www.w3.org/2000/svg" xmlns:xlink="http://www.w3.org/1999/xlink" width="100" zoomAndPan="magnify" viewBox="0 0 75 74.999997" height="100" preserveAspectRatio="xMidYMid meet" version="1.0"><defs><clipPath id="a6d2c26e87"><path d="M 4.6875 0 L 70.6875 0 L 70.6875 19 L 4.6875 19 Z M 4.6875 0 " clip-rule="nonzero"/></clipPath></defs><g clip-path="url(#a6d2c26e87)"><path fill="#ffffff" d="M 67.96875 9.199219 L 51.5625 9.199219 L 51.5625 2.34375 C 51.5625 1.054688 50.507812 0 49.21875 0 L 25.78125 0 C 24.492188 0 23.4375 1.054688 23.4375 2.34375 L 23.4375 9.199219 L 7.03125 9.199219 C 5.742188 9.199219 4.6875 10.253906 4.6875 11.542969 L 4.6875 16.230469 C 4.6875 17.519531 5.742188 18.574219 7.03125 18.574219 L 67.96875 18.574219 C 69.257812 18.574219 70.3125 17.519531 70.3125 16.230469 L 70.3125 11.542969 C 70.3125 10.253906 69.257812 9.199219 67.96875 9.199219 Z M 67.96875 9.199219 " fill-opacity="1" fill-rule="nonzero"/></g><path fill="#ffffff" d="M 15 72.949219 C 15.117188 74.121094 16.113281 75 17.34375 75 L 57.714844 75 C 58.886719 75 59.882812 74.121094 60.058594 72.949219 L 65.683594 23.496094 L 9.375 23.496094 Z M 46.875 65.332031 L 50.976562 32.578125 C 51.152344 31.289062 52.324219 30.410156 53.613281 30.527344 C 54.902344 30.703125 55.78125 31.875 55.664062 33.164062 L 51.5625 65.917969 C 51.386719 67.089844 50.390625 67.96875 49.21875 67.96875 C 49.101562 67.96875 49.042969 67.96875 48.925781 67.96875 C 47.636719 67.792969 46.757812 66.621094 46.875 65.332031 Z M 35.15625 32.871094 C 35.15625 31.582031 36.210938 30.527344 37.5 30.527344 C 38.789062 30.527344 39.84375 31.582031 39.84375 32.871094 L 39.84375 65.625 C 39.84375 66.914062 38.789062 67.96875 37.5 67.96875 C 36.210938 67.96875 35.15625 66.914062 35.15625 65.625 Z M 21.386719 30.527344 C 22.675781 30.351562 23.847656 31.289062 24.023438 32.578125 L 28.125 65.332031 C 28.300781 66.621094 27.363281 67.792969 26.074219 67.96875 C 25.957031 67.96875 25.898438 67.96875 25.78125 67.96875 C 24.609375 67.96875 23.613281 67.089844 23.4375 65.917969 L 19.335938 33.164062 C 19.21875 31.875 20.097656 30.703125 21.386719 30.527344 Z M 21.386719 30.527344 " fill-opacity="1" fill-rule="nonzero"/></svg>