<svg xmlns="http://www.w3.org/2000/svg" xmlns:xlink="http://www.w3.org/1999/xlink" width="100" zoomAndPan="magnify" viewBox="0 0 75 74.999997" height="100" preserveAspectRatio="xMidYMid meet" version="1.0"><defs><clipPath id="32892fb410"><path d="M 0 0.84375 L 74 0.84375 L 74 74.34375 L 0 74.34375 Z M 0 0.84375 " clip-rule="nonzero"/></clipPath></defs><g clip-path="url(#32892fb410)"><path fill="#ffffff" d="M 72.789062 30.78125 C 72.480469 29.089844 70.785156 27.933594 69.085938 28.238281 C 67.386719 28.550781 66.234375 30.25 66.539062 31.941406 C 66.847656 33.71875 67.082031 35.574219 67.082031 37.421875 C 67.082031 54.167969 53.496094 67.75 36.75 67.75 C 20.003906 67.75 6.421875 54.246094 6.421875 37.5 C 6.421875 20.753906 20.003906 7.171875 36.75 7.171875 C 40.84375 7.171875 44.851562 7.945312 48.558594 9.566406 C 50.175781 10.261719 52.027344 9.488281 52.730469 7.867188 C 53.417969 6.246094 52.644531 4.398438 51.03125 3.699219 C 46.472656 1.847656 41.691406 0.84375 36.75 0.84375 C 16.527344 0.84375 0.09375 17.277344 0.09375 37.5 C 0.09375 57.722656 16.527344 74.15625 36.75 74.15625 C 56.972656 74.15625 73.40625 57.722656 73.40625 37.5 C 73.40625 35.183594 73.171875 32.949219 72.789062 30.78125 " fill-opacity="1" fill-rule="nonzero"/></g><path fill="#ffffff" d="M 28.183594 28.316406 C 24.402344 22.835938 15.375 28.082031 19.230469 33.5625 C 23.863281 40.199219 28.105469 47.144531 32.734375 53.785156 C 34.972656 56.949219 39.53125 57.253906 41.691406 53.785156 C 50.175781 40.042969 58.976562 26.695312 70.242188 15.046875 C 74.871094 10.261719 67.542969 2.847656 62.914062 7.710938 C 52.957031 18.050781 44.695312 29.632812 37.054688 41.664062 C 34.128906 37.195312 31.269531 32.714844 28.183594 28.316406 " fill-opacity="1" fill-rule="nonzero"/></svg>