<svg xmlns="http://www.w3.org/2000/svg" xmlns:xlink="http://www.w3.org/1999/xlink" width="100" zoomAndPan="magnify" viewBox="0 0 75 74.999997" height="100" preserveAspectRatio="xMidYMid meet" version="1.0"><path fill="#ffffff" d="M 70.445312 29.242188 C 70.007812 27.621094 68.347656 26.648438 66.710938 27.089844 C 65.085938 27.527344 64.117188 29.195312 64.554688 30.820312 C 67.070312 40.214844 64.359375 50.308594 57.464844 57.171875 C 48.128906 66.480469 33.683594 67.648438 23.0625 60.691406 L 29.140625 58.988281 C 30.761719 58.542969 31.710938 56.855469 31.261719 55.238281 C 30.804688 53.613281 29.128906 52.671875 27.507812 53.121094 L 15.761719 56.398438 C 15.695312 56.417969 15.640625 56.464844 15.570312 56.480469 C 15.464844 56.523438 15.371094 56.566406 15.269531 56.617188 C 15.015625 56.738281 14.792969 56.886719 14.585938 57.066406 C 14.535156 57.113281 14.472656 57.132812 14.421875 57.175781 C 14.398438 57.199219 14.390625 57.230469 14.371094 57.253906 C 14.125 57.515625 13.921875 57.808594 13.78125 58.144531 C 13.753906 58.214844 13.742188 58.292969 13.71875 58.371094 C 13.65625 58.5625 13.582031 58.75 13.554688 58.957031 L 12.078125 71.019531 C 11.875 72.6875 13.0625 74.207031 14.734375 74.414062 C 14.859375 74.433594 14.984375 74.441406 15.109375 74.441406 C 16.625 74.441406 17.9375 73.308594 18.128906 71.769531 L 18.929688 65.21875 C 24.667969 69.222656 31.371094 71.25 38.097656 71.25 C 46.667969 71.25 55.238281 68 61.765625 61.492188 C 70.195312 53.085938 73.523438 40.734375 70.445312 29.242188 Z M 70.445312 29.242188 " fill-opacity="1" fill-rule="nonzero"/><path fill="#ffffff" d="M 18.742188 18.589844 C 28.074219 9.285156 42.519531 8.117188 53.144531 15.074219 L 47.0625 16.773438 C 45.441406 17.226562 44.496094 18.90625 44.949219 20.527344 C 45.332031 21.871094 46.550781 22.757812 47.882812 22.757812 C 48.15625 22.757812 48.433594 22.71875 48.710938 22.640625 L 60.453125 19.363281 C 60.515625 19.34375 60.578125 19.300781 60.644531 19.277344 C 60.746094 19.238281 60.839844 19.195312 60.941406 19.144531 C 61.199219 19.019531 61.425781 18.871094 61.632812 18.691406 C 61.683594 18.644531 61.746094 18.628906 61.796875 18.578125 C 61.820312 18.558594 61.828125 18.523438 61.851562 18.503906 C 62.097656 18.242188 62.296875 17.945312 62.4375 17.613281 C 62.46875 17.539062 62.476562 17.464844 62.503906 17.386719 C 62.566406 17.195312 62.640625 17.007812 62.667969 16.800781 L 64.144531 4.734375 C 64.347656 3.0625 63.160156 1.546875 61.492188 1.339844 C 59.851562 1.148438 58.300781 2.324219 58.097656 3.992188 L 57.292969 10.546875 C 44.234375 1.445312 26.09375 2.664062 14.449219 14.269531 C 6.019531 22.675781 2.695312 35.027344 5.777344 46.519531 C 6.140625 47.878906 7.371094 48.78125 8.714844 48.78125 C 8.976562 48.78125 9.242188 48.742188 9.503906 48.671875 C 11.128906 48.238281 12.09375 46.570312 11.660156 44.941406 C 9.136719 35.554688 11.847656 25.457031 18.742188 18.589844 Z M 18.742188 18.589844 " fill-opacity="1" fill-rule="nonzero"/></svg>