<svg xmlns="http://www.w3.org/2000/svg" xmlns:xlink="http://www.w3.org/1999/xlink" width="100" zoomAndPan="magnify" viewBox="0 0 75 74.999997" height="100" preserveAspectRatio="xMidYMid meet" version="1.0"><path fill="#ffffff" d="M 43.625 48.300781 L 48.296875 43.628906 L 57.785156 53.113281 L 53.113281 57.785156 Z M 43.625 48.300781 " fill-opacity="1" fill-rule="nonzero"/><path fill="#ffffff" d="M 72.765625 62.792969 C 74.832031 64.859375 74.832031 68.210938 72.765625 70.277344 L 70.273438 72.765625 C 68.207031 74.835938 64.859375 74.835938 62.792969 72.765625 L 49.433594 59.402344 C 47.367188 57.335938 47.367188 53.988281 49.429688 51.921875 L 51.921875 49.429688 C 53.988281 47.367188 57.339844 47.367188 59.40625 49.429688 Z M 72.765625 62.792969 " fill-opacity="1" fill-rule="nonzero"/><path fill="#ffffff" d="M 28.378906 -0.0351562 C 12.683594 -0.0351562 -0.0351562 12.683594 -0.0351562 28.378906 C -0.0351562 44.074219 12.683594 56.792969 28.378906 56.792969 C 44.074219 56.792969 56.792969 44.074219 56.792969 28.378906 C 56.792969 12.683594 44.074219 -0.0351562 28.378906 -0.0351562 Z M 28.378906 51.535156 C 15.585938 51.535156 5.21875 41.171875 5.21875 28.378906 C 5.21875 15.585938 15.585938 5.222656 28.378906 5.222656 C 41.171875 5.222656 51.539062 15.585938 51.539062 28.378906 C 51.539062 41.171875 41.171875 51.535156 28.378906 51.535156 Z M 28.378906 51.535156 " fill-opacity="1" fill-rule="nonzero"/><path fill="#ffffff" d="M 34.203125 42.441406 C 22.871094 42.441406 13.675781 33.25 13.675781 21.914062 C 13.675781 21.613281 13.707031 21.320312 13.722656 21.015625 C 12.226562 23.4375 11.347656 26.285156 11.347656 29.335938 C 11.347656 38.101562 18.453125 45.207031 27.21875 45.207031 C 30.601562 45.207031 33.730469 44.140625 36.308594 42.335938 C 35.617188 42.410156 34.914062 42.441406 34.203125 42.441406 Z M 34.203125 42.441406 " fill-opacity="1" fill-rule="nonzero"/></svg>