<svg xmlns="http://www.w3.org/2000/svg" xmlns:xlink="http://www.w3.org/1999/xlink" width="100" zoomAndPan="magnify" viewBox="0 0 75 74.999997" height="100" preserveAspectRatio="xMidYMid meet" version="1.0"><path fill="#ffffff" d="M 49.132812 54.46875 L 62.570312 32.746094 L 42.28125 12.457031 L 20.554688 25.894531 C 18.429688 27.222656 16.890625 29.242188 16.253906 31.628906 C 11.421875 49.636719 4.566406 63.976562 0.320312 71.894531 C 0.105469 72.316406 0 72.742188 0.0546875 73.167969 L 28.046875 45.175781 C 27.140625 43.476562 27.355469 41.296875 28.789062 39.863281 C 30.542969 38.109375 33.355469 38.109375 35.109375 39.863281 C 36.863281 41.617188 36.863281 44.433594 35.109375 46.183594 C 33.675781 47.617188 31.496094 47.882812 29.796875 46.929688 L 1.859375 74.921875 C 2.285156 74.972656 2.707031 74.921875 3.132812 74.65625 C 10.996094 70.40625 25.390625 63.554688 43.394531 58.71875 C 45.785156 58.136719 47.859375 56.59375 49.132812 54.46875 Z M 49.132812 54.46875 " fill-opacity="1" fill-rule="nonzero"/><path fill="#ffffff" d="M 67.085938 33.597656 L 41.429688 7.941406 C 40.527344 7.039062 40.527344 5.550781 41.429688 4.648438 L 45.148438 0.929688 C 46.050781 0.0273438 47.539062 0.0273438 48.441406 0.929688 L 74.097656 26.585938 C 75 27.488281 75 28.976562 74.097656 29.878906 L 70.378906 33.597656 C 69.476562 34.5 67.988281 34.5 67.085938 33.597656 Z M 67.085938 33.597656 " fill-opacity="1" fill-rule="nonzero"/></svg>